<svg width="74" height="74" viewBox="0 0 74 74" fill="none" xmlns="http://www.w3.org/2000/svg">
<g filter="url(#filter0_d)">
<circle cx="37" cy="35" r="22" fill="#132D43"/>
<path d="M33 35C33 44.3888 46.3888 52 37 52C27.6112 52 20 44.3888 20 35C20 25.6112 27.6112 18 37 18C46.3888 18 33 25.6112 33 35Z" fill="#775CFF"/>
<path d="M45.6911 35C45.6911 41.0751 37.1337 46 43.1345 46C49.1354 46 54 41.0751 54 35C54 28.9249 49.1354 24 43.1345 24C37.1337 24 45.6911 28.9249 45.6911 35Z" fill="#55D6BE"/>
</g>
<defs>
<filter id="filter0_d" x="0" y="0" width="74" height="74" filterUnits="userSpaceOnUse" color-interpolation-filters="sRGB">
<feFlood flood-opacity="0" result="BackgroundImageFix"/>
<feColorMatrix in="SourceAlpha" type="matrix" values="0 0 0 0 0 0 0 0 0 0 0 0 0 0 0 0 0 0 127 0"/>
<feOffset dy="2"/>
<feGaussianBlur stdDeviation="7.5"/>
<feColorMatrix type="matrix" values="0 0 0 0 0 0 0 0 0 0 0 0 0 0 0 0 0 0 0.12 0"/>
<feBlend mode="normal" in2="BackgroundImageFix" result="effect1_dropShadow"/>
<feBlend mode="normal" in="SourceGraphic" in2="effect1_dropShadow" result="shape"/>
</filter>
</defs>
</svg>
