<svg width="146" height="22" viewBox="0 0 146 22" fill="none" xmlns="http://www.w3.org/2000/svg">
<path d="M12.2246 21.2235C12.2246 21.3769 12.1666 21.5111 12.0504 21.6261C11.9343 21.7412 11.7988 21.7987 11.6439 21.7987H10.2501C10.0952 21.7987 9.95973 21.7412 9.84358 21.6261C9.72744 21.5111 9.66936 21.3769 9.66936 21.2235V11.7621C9.66936 11.0336 9.60161 10.4296 9.4661 9.95033C9.34995 9.45185 9.15637 9.05882 8.88536 8.77124C8.6337 8.48366 8.30462 8.28235 7.8981 8.16732C7.49158 8.03311 7.0173 7.96601 6.47528 7.96601C5.85582 7.96601 5.217 8.07146 4.55883 8.28235C3.90065 8.49325 3.2328 8.76166 2.55527 9.08758V21.2235C2.55527 21.3769 2.49719 21.5111 2.38104 21.6261C2.2649 21.7412 2.12939 21.7987 1.97452 21.7987H0.551705C0.396841 21.7987 0.261334 21.7412 0.145186 21.6261C0.0483952 21.5111 0 21.3769 0 21.2235V6.55686C0 6.40349 0.0483952 6.26928 0.145186 6.15425C0.261334 6.03922 0.396841 5.9817 0.551705 5.9817H2.00356C2.15843 5.9817 2.28425 6.03922 2.38104 6.15425C2.49719 6.26928 2.55527 6.40349 2.55527 6.55686V7.10327C3.36831 6.66231 4.12327 6.33638 4.82016 6.12549C5.51705 5.89542 6.30106 5.78039 7.17217 5.78039C8.93375 5.78039 10.2114 6.29804 11.0051 7.33333C11.8181 8.36863 12.2246 9.84488 12.2246 11.7621V21.2235Z" fill="url(#paint0_linear)"/>
<path d="M28.475 14.0627C28.475 14.4845 28.2911 14.6954 27.9233 14.6954H18.1958V15.098C18.1958 16.8044 18.5346 18.0122 19.2121 18.7216C19.8897 19.4309 20.8963 19.7856 22.232 19.7856C23.0838 19.7856 23.9839 19.7569 24.9325 19.6993C25.9004 19.6418 26.7231 19.5651 27.4006 19.4693H27.5458C27.6619 19.4693 27.7684 19.498 27.8652 19.5556C27.962 19.6131 28.0104 19.7185 28.0104 19.8719V20.8497C28.0104 21.0414 27.9717 21.1948 27.8942 21.3098C27.8168 21.4057 27.6619 21.4728 27.4296 21.5111C26.5972 21.6645 25.7648 21.7795 24.9325 21.8562C24.1194 21.9521 23.2193 22 22.232 22C21.3996 22 20.5866 21.8946 19.7929 21.6837C18.9992 21.4536 18.2926 21.0797 17.6732 20.5621C17.0731 20.0253 16.5794 19.3159 16.1923 18.434C15.8245 17.5521 15.6406 16.4401 15.6406 15.098V12.5098C15.6406 10.4392 16.1923 8.8 17.2957 7.59216C18.3991 6.38431 19.9961 5.78039 22.0868 5.78039C23.1515 5.78039 24.0807 5.94335 24.8744 6.26928C25.6681 6.57603 26.3262 7.02658 26.8489 7.62091C27.3909 8.19608 27.7974 8.90545 28.0685 9.74902C28.3395 10.5734 28.475 11.4937 28.475 12.5098V14.0627ZM25.8907 12.5098C25.8907 10.8802 25.5713 9.72026 24.9325 9.03006C24.313 8.33987 23.3644 7.99477 22.0868 7.99477C20.8285 7.99477 19.8606 8.35904 19.1831 9.08758C18.5249 9.81612 18.1958 10.9569 18.1958 12.5098V12.7686H25.8907V12.5098Z" fill="url(#paint1_linear)"/>
<path d="M43.6734 6.47059C43.6734 6.54728 43.6637 6.61438 43.6444 6.6719L39.7244 20.3608C39.5308 21.0126 39.2017 21.4536 38.7371 21.6837C38.2725 21.8946 37.7305 22 37.111 22C36.4916 22 35.9495 21.8946 35.4849 21.6837C35.0204 21.4536 34.6913 21.0126 34.4977 20.3608L30.5777 6.6719C30.5583 6.61438 30.5486 6.54728 30.5486 6.47059C30.5486 6.14466 30.7035 5.9817 31.0132 5.9817H32.6103C32.8619 5.9817 33.0458 6.16383 33.162 6.5281L36.5012 19.0667C36.598 19.4118 36.6852 19.6418 36.7626 19.7569C36.84 19.8527 36.9562 19.9007 37.111 19.9007C37.2465 19.9007 37.353 19.8527 37.4304 19.7569C37.5272 19.6418 37.624 19.4118 37.7208 19.0667L41.0601 6.5281C41.1762 6.16383 41.3601 5.9817 41.6118 5.9817H43.2088C43.5186 5.9817 43.6734 6.14466 43.6734 6.47059Z" fill="url(#paint2_linear)"/>
<path d="M58.5329 14.0627C58.5329 14.4845 58.349 14.6954 57.9812 14.6954H48.2538V15.098C48.2538 16.8044 48.5926 18.0122 49.2701 18.7216C49.9476 19.4309 50.9543 19.7856 52.29 19.7856C53.1417 19.7856 54.0419 19.7569 54.9904 19.6993C55.9583 19.6418 56.781 19.5651 57.4586 19.4693H57.6037C57.7199 19.4693 57.8264 19.498 57.9232 19.5556C58.0199 19.6131 58.0683 19.7185 58.0683 19.8719V20.8497C58.0683 21.0414 58.0296 21.1948 57.9522 21.3098C57.8748 21.4057 57.7199 21.4728 57.4876 21.5111C56.6552 21.6645 55.8228 21.7795 54.9904 21.8562C54.1774 21.9521 53.2772 22 52.29 22C51.4576 22 50.6445 21.8946 49.8508 21.6837C49.0572 21.4536 48.3506 21.0797 47.7311 20.5621C47.131 20.0253 46.6374 19.3159 46.2502 18.434C45.8824 17.5521 45.6985 16.4401 45.6985 15.098V12.5098C45.6985 10.4392 46.2502 8.8 47.3536 7.59216C48.4571 6.38431 50.0541 5.78039 52.1448 5.78039C53.2095 5.78039 54.1387 5.94335 54.9323 6.26928C55.726 6.57603 56.3842 7.02658 56.9069 7.62091C57.4489 8.19608 57.8554 8.90545 58.1264 9.74902C58.3974 10.5734 58.5329 11.4937 58.5329 12.5098V14.0627ZM55.9486 12.5098C55.9486 10.8802 55.6292 9.72026 54.9904 9.03006C54.371 8.33987 53.4224 7.99477 52.1448 7.99477C50.8865 7.99477 49.9186 8.35904 49.2411 9.08758C48.5829 9.81612 48.2538 10.9569 48.2538 12.5098V12.7686H55.9486V12.5098Z" fill="url(#paint3_linear)"/>
<path d="M69.188 7.47712C69.188 7.80305 68.9847 7.96601 68.5782 7.96601C67.9007 7.96601 67.2425 8.06187 66.6037 8.25359C65.9842 8.42614 65.3067 8.7329 64.5711 9.17386V21.2235C64.5711 21.3769 64.513 21.5111 64.3969 21.6261C64.2807 21.7412 64.1452 21.7987 63.9903 21.7987H62.5675C62.4126 21.7987 62.2771 21.7412 62.161 21.6261C62.0642 21.5111 62.0158 21.3769 62.0158 21.2235V6.55686C62.0158 6.40349 62.0642 6.26928 62.161 6.15425C62.2771 6.03922 62.4126 5.9817 62.5675 5.9817H63.9323C64.0871 5.9817 64.2129 6.03922 64.3097 6.15425C64.4259 6.26928 64.484 6.40349 64.484 6.55686V7.16078C65.2196 6.66231 65.9165 6.30763 66.5746 6.09673C67.2522 5.88584 67.92 5.78039 68.5782 5.78039C68.9847 5.78039 69.188 5.95294 69.188 6.29804V7.47712Z" fill="url(#paint4_linear)"/>
<path d="M91.1632 21.2235C91.1632 21.3769 91.1051 21.5111 90.989 21.6261C90.8728 21.7412 90.7373 21.7987 90.5824 21.7987H89.1887C89.0338 21.7987 88.8983 21.7412 88.7821 21.6261C88.666 21.5111 88.6079 21.3769 88.6079 21.2235V11.0431C88.6079 10.4488 88.5402 9.95033 88.4046 9.54771C88.2691 9.1451 88.0852 8.82876 87.8529 8.59869C87.6206 8.36863 87.34 8.20566 87.0109 8.1098C86.6818 8.01394 86.3333 7.96601 85.9655 7.96601C85.4429 7.96601 84.8815 8.0427 84.2814 8.19608C83.7006 8.34945 83.1296 8.53159 82.5682 8.74248C82.7424 9.37516 82.8295 10.1229 82.8295 10.9856V21.2235C82.8295 21.3769 82.7811 21.5111 82.6843 21.6261C82.5875 21.7412 82.4617 21.7987 82.3069 21.7987H80.7679C80.613 21.7987 80.4872 21.7412 80.3904 21.6261C80.313 21.5111 80.2743 21.3769 80.2743 21.2235V10.9856C80.2743 10.3529 80.2259 9.84488 80.1291 9.46144C80.0516 9.05882 79.9161 8.75207 79.7225 8.54118C79.529 8.31111 79.287 8.15773 78.9966 8.08105C78.7256 8.00436 78.4062 7.96601 78.0384 7.96601C77.5157 7.96601 76.9447 8.08105 76.3252 8.31111C75.7251 8.522 75.1153 8.78083 74.4959 9.08758V21.2235C74.4959 21.3769 74.4475 21.5111 74.3507 21.6261C74.2539 21.7412 74.1281 21.7987 73.9732 21.7987H72.4342C72.2794 21.7987 72.1535 21.7412 72.0567 21.6261C71.9793 21.5111 71.9406 21.3769 71.9406 21.2235V6.55686C71.9406 6.40349 71.989 6.26928 72.0858 6.15425C72.2019 6.03922 72.3374 5.9817 72.4923 5.9817H73.9442C74.099 5.9817 74.2249 6.03922 74.3216 6.15425C74.4378 6.26928 74.4959 6.40349 74.4959 6.55686V7.10327C75.0766 6.739 75.7251 6.42266 76.4414 6.15425C77.1576 5.88584 77.9222 5.75163 78.7353 5.75163C79.3548 5.75163 79.8968 5.84749 80.3614 6.03922C80.8453 6.21176 81.2712 6.50893 81.639 6.93072C82.452 6.54728 83.2651 6.25969 84.0781 6.06797C84.9105 5.85708 85.7042 5.75163 86.4592 5.75163C87.1173 5.75163 87.7271 5.83791 88.2885 6.01046C88.8692 6.18301 89.3726 6.48017 89.7984 6.90196C90.2243 7.30458 90.5534 7.85098 90.7857 8.54118C91.0373 9.2122 91.1632 10.0462 91.1632 11.0431V21.2235Z" fill="url(#paint5_linear)"/>
<path d="M98.0407 2.87582C98.0407 3.02919 97.9826 3.1634 97.8664 3.27843C97.7503 3.39346 97.6148 3.45098 97.4599 3.45098H95.979C95.8242 3.45098 95.6887 3.39346 95.5725 3.27843C95.4564 3.1634 95.3983 3.02919 95.3983 2.87582V0.575163C95.3983 0.421786 95.4564 0.287581 95.5725 0.172548C95.6887 0.0575161 95.8242 0 95.979 0H97.4599C97.6148 0 97.7503 0.0575161 97.8664 0.172548C97.9826 0.287581 98.0407 0.421786 98.0407 0.575163V2.87582ZM97.9826 21.2235C97.9826 21.3769 97.9245 21.5111 97.8084 21.6261C97.6922 21.7412 97.5567 21.7987 97.4018 21.7987H96.0081C95.8532 21.7987 95.7177 21.7412 95.6015 21.6261C95.4854 21.5111 95.4273 21.3769 95.4273 21.2235V6.55686C95.4273 6.40349 95.4854 6.26928 95.6015 6.15425C95.7177 6.03922 95.8532 5.9817 96.0081 5.9817H97.4018C97.5567 5.9817 97.6922 6.03922 97.8084 6.15425C97.9245 6.26928 97.9826 6.40349 97.9826 6.55686V21.2235Z" fill="url(#paint6_linear)"/>
<path d="M114.507 21.2235C114.507 21.3769 114.449 21.5111 114.333 21.6261C114.216 21.7412 114.081 21.7987 113.926 21.7987H112.532C112.377 21.7987 112.242 21.7412 112.126 21.6261C112.01 21.5111 111.951 21.3769 111.951 21.2235V11.7621C111.951 11.0336 111.884 10.4296 111.748 9.95033C111.632 9.45185 111.438 9.05882 111.167 8.77124C110.916 8.48366 110.587 8.28235 110.18 8.16732C109.774 8.03311 109.299 7.96601 108.757 7.96601C108.138 7.96601 107.499 8.07146 106.841 8.28235C106.183 8.49325 105.515 8.76166 104.837 9.08758V21.2235C104.837 21.3769 104.779 21.5111 104.663 21.6261C104.547 21.7412 104.412 21.7987 104.257 21.7987H102.834C102.679 21.7987 102.543 21.7412 102.427 21.6261C102.331 21.5111 102.282 21.3769 102.282 21.2235V6.55686C102.282 6.40349 102.331 6.26928 102.427 6.15425C102.543 6.03922 102.679 5.9817 102.834 5.9817H104.286C104.441 5.9817 104.566 6.03922 104.663 6.15425C104.779 6.26928 104.837 6.40349 104.837 6.55686V7.10327C105.65 6.66231 106.405 6.33638 107.102 6.12549C107.799 5.89542 108.583 5.78039 109.454 5.78039C111.216 5.78039 112.494 6.29804 113.287 7.33333C114.1 8.36863 114.507 9.84488 114.507 11.7621V21.2235Z" fill="url(#paint7_linear)"/>
<path d="M130.757 14.0627C130.757 14.4845 130.573 14.6954 130.205 14.6954H120.478V15.098C120.478 16.8044 120.817 18.0122 121.494 18.7216C122.172 19.4309 123.178 19.7856 124.514 19.7856C125.366 19.7856 126.266 19.7569 127.215 19.6993C128.182 19.6418 129.005 19.5651 129.683 19.4693H129.828C129.944 19.4693 130.051 19.498 130.147 19.5556C130.244 19.6131 130.293 19.7185 130.293 19.8719V20.8497C130.293 21.0414 130.254 21.1948 130.176 21.3098C130.099 21.4057 129.944 21.4728 129.712 21.5111C128.879 21.6645 128.047 21.7795 127.215 21.8562C126.402 21.9521 125.501 22 124.514 22C123.682 22 122.869 21.8946 122.075 21.6837C121.281 21.4536 120.575 21.0797 119.955 20.5621C119.355 20.0253 118.862 19.3159 118.474 18.434C118.107 17.5521 117.923 16.4401 117.923 15.098V12.5098C117.923 10.4392 118.474 8.8 119.578 7.59216C120.681 6.38431 122.278 5.78039 124.369 5.78039C125.434 5.78039 126.363 5.94335 127.156 6.26928C127.95 6.57603 128.608 7.02658 129.131 7.62091C129.673 8.19608 130.08 8.90545 130.351 9.74902C130.622 10.5734 130.757 11.4937 130.757 12.5098V14.0627ZM128.173 12.5098C128.173 10.8802 127.853 9.72026 127.215 9.03006C126.595 8.33987 125.647 7.99477 124.369 7.99477C123.111 7.99477 122.143 8.35904 121.465 9.08758C120.807 9.81612 120.478 10.9569 120.478 12.5098V12.7686H128.173V12.5098Z" fill="url(#paint8_linear)"/>
<path d="M146 20.8497C146 21.0414 145.961 21.1948 145.884 21.3098C145.826 21.4057 145.661 21.4728 145.39 21.5111C144.48 21.6837 143.58 21.8083 142.69 21.885C141.819 21.9617 140.938 22 140.047 22C138.963 22 138.024 21.837 137.231 21.5111C136.437 21.166 135.779 20.6867 135.256 20.0732C134.734 19.4597 134.346 18.712 134.095 17.8301C133.843 16.9481 133.717 15.9704 133.717 14.8967V12.8261C133.717 10.5638 134.24 8.82876 135.285 7.62091C136.331 6.3939 137.918 5.78039 140.047 5.78039C140.493 5.78039 141.025 5.80915 141.644 5.86667C142.283 5.90501 142.883 5.97211 143.445 6.06797V0.718954C143.445 0.565576 143.493 0.440957 143.59 0.345097C143.706 0.230064 143.842 0.172548 143.996 0.172548H145.477C145.632 0.172548 145.758 0.230064 145.855 0.345097C145.952 0.440957 146 0.565576 146 0.718954V20.8497ZM143.445 8.19608C142.961 8.10022 142.39 8.0427 141.732 8.02353C141.073 8.00436 140.512 7.99477 140.047 7.99477C139.331 7.99477 138.731 8.10022 138.247 8.31111C137.763 8.522 137.376 8.83834 137.086 9.26013C136.795 9.66275 136.582 10.1708 136.447 10.7843C136.331 11.3786 136.273 12.0593 136.273 12.8261V14.8967C136.273 16.4688 136.544 17.6767 137.086 18.5203C137.628 19.3638 138.615 19.7856 140.047 19.7856C140.551 19.7856 141.112 19.7664 141.732 19.7281C142.37 19.6898 142.941 19.6514 143.445 19.6131V8.19608Z" fill="url(#paint9_linear)"/>
<defs>
<linearGradient id="paint0_linear" x1="0" y1="0" x2="146.133" y2="21.0806" gradientUnits="userSpaceOnUse">
<stop stop-color="#2779C2"/>
<stop offset="1" stop-color="#F67BA1"/>
</linearGradient>
<linearGradient id="paint1_linear" x1="0" y1="0" x2="146.133" y2="21.0806" gradientUnits="userSpaceOnUse">
<stop stop-color="#2779C2"/>
<stop offset="1" stop-color="#F67BA1"/>
</linearGradient>
<linearGradient id="paint2_linear" x1="0" y1="0" x2="146.133" y2="21.0806" gradientUnits="userSpaceOnUse">
<stop stop-color="#2779C2"/>
<stop offset="1" stop-color="#F67BA1"/>
</linearGradient>
<linearGradient id="paint3_linear" x1="0" y1="0" x2="146.133" y2="21.0806" gradientUnits="userSpaceOnUse">
<stop stop-color="#2779C2"/>
<stop offset="1" stop-color="#F67BA1"/>
</linearGradient>
<linearGradient id="paint4_linear" x1="0" y1="0" x2="146.133" y2="21.0806" gradientUnits="userSpaceOnUse">
<stop stop-color="#2779C2"/>
<stop offset="1" stop-color="#F67BA1"/>
</linearGradient>
<linearGradient id="paint5_linear" x1="0" y1="0" x2="146.133" y2="21.0806" gradientUnits="userSpaceOnUse">
<stop stop-color="#2779C2"/>
<stop offset="1" stop-color="#F67BA1"/>
</linearGradient>
<linearGradient id="paint6_linear" x1="0" y1="0" x2="146.133" y2="21.0806" gradientUnits="userSpaceOnUse">
<stop stop-color="#2779C2"/>
<stop offset="1" stop-color="#F67BA1"/>
</linearGradient>
<linearGradient id="paint7_linear" x1="0" y1="0" x2="146.133" y2="21.0806" gradientUnits="userSpaceOnUse">
<stop stop-color="#2779C2"/>
<stop offset="1" stop-color="#F67BA1"/>
</linearGradient>
<linearGradient id="paint8_linear" x1="0" y1="0" x2="146.133" y2="21.0806" gradientUnits="userSpaceOnUse">
<stop stop-color="#2779C2"/>
<stop offset="1" stop-color="#F67BA1"/>
</linearGradient>
<linearGradient id="paint9_linear" x1="0" y1="0" x2="146.133" y2="21.0806" gradientUnits="userSpaceOnUse">
<stop stop-color="#2779C2"/>
<stop offset="1" stop-color="#F67BA1"/>
</linearGradient>
</defs>
</svg>
